# xmcd
#
# Track frame offsets:
#  150
#  19304
#  39271
#  64857
#  83157
#  103222
#  123025
#  159415
#  175541
#  195575
#  211819
#  240733
#  262663
#
# Disc length: 3797 seconds
#
# Revision: 0
# Processed by: cddbd v1.5.1PL0 Copyright (c) Steve Scherf et al.
# Submitted via: Collectorz.com Music Collector 6.9
#
DISCID=9c0ed30d
DTITLE=Peven Everett - Latest craze (part 1)
DYEAR=2005
DGENRE=R&B
TTITLE0=Love this way
TTITLE1=Latest craze
TTITLE2=Ghetto
TTITLE3=Get what you got
TTITLE4=Don't go
TTITLE5=Anymore
TTITLE6=Street walker
TTITLE7=Beep you
TTITLE8=Dillusional
TTITLE9=Everything I could (a father's love)
TTITLE10=Gin dancer
TTITLE11=See saw
TTITLE12=Do you love me
EXTD=
EXTT0=
EXTT1=
EXTT2=
EXTT3=
EXTT4=
EXTT5=
EXTT6=
EXTT7=
EXTT8=
EXTT9=
EXTT10=
EXTT11=
EXTT12=
PLAYORDER=
